# xmcd
#
# Track frame offsets: 
#        182
#        15535
#        39422
#        61882
#        84092
#        101952
#        127055
#        144547
#        167390
#
# Disc length: 2432 seconds
#
# Revision: 3
# Processed by: cddbd v1.5.2PL0 Copyright (c) Steve Scherf et al.
# Submitted via: ExactAudioCopy v1.1
#
DISCID=6c097e09
DTITLE=Muddy Waters - I'm Ready
DYEAR=1978
DGENRE=Blues
TTITLE0=I'm Ready
TTITLE1=33 Years
TTITLE2=Who Do You Trust
TTITLE3=Copper Brown
TTITLE4=I'm Your Hoochie Coochie Man
TTITLE5=Mamie
TTITLE6=Rock Me
TTITLE7=Screamin' And Cryin'
TTITLE8=Good Morning Little School Girl
EXTD=YEAR: 1978
EXTT0=
EXTT1=
EXTT2=
EXTT3=
EXTT4=
EXTT5=
EXTT6=
EXTT7=
EXTT8=
PLAYORDER=
